<?xml version="1.0" encoding="utf-8"?>
<!-- Generator: Adobe Illustrator 19.2.0, SVG Export Plug-In . SVG Version: 6.00 Build 0)  -->
<svg version="1.1" id="Layer_1" xmlns="http://www.w3.org/2000/svg" xmlns:xlink="http://www.w3.org/1999/xlink" x="0px" y="0px"
	 viewBox="0 0 16 54" style="enable-background:new 0 0 16 54;" xml:space="preserve">
<style type="text/css">
	.st0{fill:#010101;}
	.st1{fill:#FFFFFF;stroke:#010101;stroke-miterlimit:10;}
	.st2{fill:#FFFFFF;}
</style>
<g>
	<g id="Layer_2">
		<path class="st0" d="M13.9,5.4V5.1H2v0.3H1.6v8.3H2V14h11.9v-0.3h0.4V5.4H13.9z M9,9.8v2.9H7V9.8C6.5,9.5,6.2,8.9,6.2,8.3
			c0-1,0.8-1.8,1.8-1.8s1.8,0.8,1.8,1.8C9.7,8.9,9.4,9.5,9,9.8z"/>
	</g>
	<g id="Layer_3">
		<path class="st0" d="M5.5,5.2V3.6c0-0.9,1.1-1.7,2.4-1.7s2.4,0.8,2.4,1.7v1.6h2.1v-2c0-1.8-2-3.2-4.5-3.2S3.4,1.5,3.4,3.2v2H5.5z"
			/>
	</g>
</g>
<g>
	<g id="Layer_2_1_">
		<path class="st0" d="M13.9,25.5v-0.3H2v0.3H1.6v8.3H2v0.3h11.9v-0.3h0.4v-8.3H13.9z M9,29.9v2.9H7v-2.9c-0.5-0.3-0.8-0.9-0.8-1.5
			c0-1,0.8-1.8,1.8-1.8s1.8,0.8,1.8,1.8C9.7,29,9.4,29.6,9,29.9z"/>
	</g>
	<g id="Layer_3_1_">
		<path class="st0" d="M5.5,25.4v-3.1c0-0.9,1.1-1.7,2.4-1.7s2.4,0.8,2.4,1.7v1.6h2.1v-2c0-1.8-2-3.2-4.5-3.2s-4.5,1.4-4.5,3.2v3.5
			H5.5z"/>
	</g>
</g>
<g>
	<g id="Layer_1_1_">
		<rect x="0.4" y="38.8" class="st1" width="10.1" height="14.2"/>
	</g>
	<g id="Layer_2_2_">
		<g>
			
				<rect x="5.1" y="42.5" transform="matrix(0.6447 -0.7644 0.7644 0.6447 -30.0467 23.4827)" class="st0" width="10.2" height="3.1"/>
			<polyline class="st0" points="5.3,47.8 7.5,49.6 4.4,51.1 			"/>
			<polygon class="st0" points="15.3,40.6 12.9,38.6 13.8,37.4 16.2,39.4 			"/>
			
				<rect x="6.1" y="43.7" transform="matrix(0.6463 -0.7631 0.7631 0.6463 -29.9938 22.9005)" class="st2" width="7.2" height="0.2"/>
			<rect x="7" y="44.5" transform="matrix(0.638 -0.7701 0.7701 0.638 -30.5127 24.3142)" class="st2" width="7.2" height="0.2"/>
		</g>
	</g>
</g>
</svg>
