<?xml version="1.0" encoding="utf-8"?>
<!-- Generator: Adobe Illustrator 15.1.0, SVG Export Plug-In . SVG Version: 6.00 Build 0)  -->
<!DOCTYPE svg PUBLIC "-//W3C//DTD SVG 1.1//EN" "http://www.w3.org/Graphics/SVG/1.1/DTD/svg11.dtd">
<svg version="1.1" xmlns="http://www.w3.org/2000/svg" xmlns:xlink="http://www.w3.org/1999/xlink" x="0px" y="0px" width="16px"
	 height="16px" viewBox="0 0 16 16" enable-background="new 0 0 16 16" xml:space="preserve">
<g id="Layer_1">
</g>
<g id="Layer_2">
	<path d="M13.9,6.8V6.5H2v0.3H1.6v8.3H2v0.3h11.9v-0.3h0.4V6.8H13.9z M9,11.2v2.9h-2v-2.9c-0.5-0.3-0.8-0.9-0.8-1.5
		c0-1,0.8-1.8,1.8-1.8c1,0,1.8,0.8,1.8,1.8C9.7,10.3,9.4,10.9,9,11.2z"/>
</g>
<g id="Layer_3">
	<path d="M5.5,6.6V5c0-0.9,1.1-1.7,2.4-1.7c1.3,0,2.4,0.8,2.4,1.7v1.6h2.1v-2c0-1.8-2-3.2-4.5-3.2S3.4,2.9,3.4,4.6v2H5.5z"/>
</g>
</svg>
